<?xml version="1.0" encoding="UTF-8"?>
<svg id="Livello_2" data-name="Livello 2" xmlns="http://www.w3.org/2000/svg" viewBox="0 0 773.85 891.1">
  <g id="Livello_1-2" data-name="Livello 1">
    <path d="M745.38,25.94c-34.82-27.31-86.97-16.39-123.89,8-36.91,24.39-65.28,59.94-101.67,85.11-74.25,51.39-172.05,53.78-252.97,93.86-12.19,6.04-24.48,13.43-31.37,25.16-5.75,9.79-7.08,21.53-7.16,32.89-.27,37.16,11.77,74.31,33.77,104.26-14.46-18.71-29.09-37.7-38.3-59.48-9.21-21.79-12.55-47.06-3.91-69.08,9.77-24.93,33.11-41.96,57.13-53.8,69.49-34.24,151.31-36,221.42-68.98,9.26-4.36,19.71-11.86,18.25-21.99-.45-3.14-3.06-9.25-23.94-16.15-15.18-5.02-39.77-10.38-73.41-6.26,10.48-2.93,26.95-6.82,47.49-8.45,24.83-1.98,34.17,1.05,46.8-.98,16.59-2.66,39.56-14.17,63.77-56.28-28.59,23.28-68.18,26.78-105.04,26.41-36.86-.36-75.04-3.38-109.36,10.09-15.54,6.09-34.55,24.52-31.47,37.38,2.77,11.56,23.13,15.94,42.06,19.81,39.09,7.98,71.94,3.8,71.99,4.33.09.98-109.57,5.02-209.27,53.29-22.84,11.06-43.54,24.7-55.88,48.82-13.11,25.63-9.49,57.25,2.59,83.38,12.08,26.14,31.68,47.93,50.98,69.28-29.98-22.5-61.73-47.46-72.35-83.41-9.06-30.67-.39-64.86,18.24-90.85,18.63-25.99,46.25-44.47,75.64-57.07,15.67-6.71,32.49-12.23,44.75-24.08,12.26-11.83,18.1-32.64,7.48-45.98-10.1-12.67-31.4-14.79-37.24-29.91-5.1-13.2,5.5-27.34,17.23-35.26-32.47,9.6-64.53,20.56-96.09,32.83-8.08,3.14-16.89,7.07-20.4,15-4.16,9.43,1.48,20.97,10.2,26.46,8.72,5.49,19.57,6.23,29.87,5.85,4.91-.17,10.2-.48,14.35,2.17,8.7,5.54,6.01,19.15.09,27.59-26.74,38.07-88.55,36.19-116.16,73.63-17.02,23.09-15.86,55.31-6.67,82.49,13.5,39.93,43.03,74.18,80.53,93.41-36.5-15.51-71.84-38.18-91.7-72.52-19.85-34.34-20.05-82.19,7.76-110.47,9.79-9.95,22.18-16.87,33.35-25.25,11.16-8.38,21.62-19.08,24.79-32.68,3.17-13.59-3.63-30.21-17.14-33.71,5.51,23.59-10.47,47.41-30.24,61.41-19.78,14.01-43.43,21.47-64.16,34.01-16.63,10.06-31.6,23.81-39.84,41.41-8.25,17.6-8.91,39.39,1.28,55.94,9.52,15.46,26.6,24.31,42.87,32.35,40.95,20.23,114.49,50.04,215.72,102.09h-23.77c-4.26,0-8.12,1.72-10.92,4.52s-4.52,6.65-4.52,10.92c0,7.44,5.25,13.64,12.33,15.49-2.21.2-4.18,1.18-5.66,2.65-1.66,1.66-2.69,3.97-2.69,6.51,0,5.09,4.12,9.21,9.21,9.21h11.09c1.8,7.14,3.49,16.82,3.34,28.31-.1,8.12-1.1,15.27-2.34,21.19-3.99,1.22-7.9,2.62-11.72,4.18l-89.55-92.58c2.47-2.21,4.93-4.42,7.4-6.63-.59-.9-4.27-6.31-11.52-7.53-3.61-.61-6.72.04-9.04.94-3.82-2.43-8.96-1.98-12.3,1.36l-3.01,3.01c-3.87,3.87-3.87,10.14,0,14l.55.55-5.18,5.18c-4.25,4.25-4.25,11.13,0,15.38l87.4,87.39c-5.38,4.43-10.42,9.27-15.06,14.46-5.84,6.52-11.06,13.61-15.57,21.17-17.3-.29-34.61-.58-51.92-.87-.66-13.08.38-24.39,1.76-33.14h.01c6.8-5.55,10.48-11.82,9.81-18.1-1.73-16.15-31.59-26.19-66.69-22.42-35.1,3.76-62.15,19.91-60.41,36.06.49,4.64,3.31,8.76,7.9,12.21,3.87,15.5,9.64,33.12,18.41,51.64.92,1.95,1.88,3.92,2.87,5.89l-9.83,12.6c-2.39-.13-5.1.35-8.23.92-5.87,1.06-11.22,2.02-13.07,5.81-2.71,5.54,3.5,14.13,9.36,18.4,7.27,5.31,18.73,7.46,22.44,2.91,1.77-2.17,1.13-5.64-.16-12.59-1.03-5.57-1.69-9.14-3.24-11.56,2.19-3,5.03-6.83,6.65-9.01.16.3.32.6.49.9,1.26,2.32,2.58,4.65,3.96,6.99,3.49,5.96,7.12,11.61,10.86,16.99,1.1,1.58,2.21,3.13,3.33,4.67-4.06,5.09-13.33,16.83-13.33,17.33,0,.02.01.05.04.08-4.39,2.19-9.34,6.51-14.09,12.52.41,1.57,2.7,9.72,10.98,14.53,7.3,4.23,14.45,3.1,16.31,2.74,1.38-3.68,4.93-14.46.98-24.07l5.54-14.66c.73.93,1.47,1.84,2.21,2.75,12.36,15.16,25.58,27.88,39.05,38.99,13.46,11.11,27.17,20.62,40.48,29.37-11.04,14.5-25.02,30.57-42.48,46.68-11.98,11.04-23.76,20.4-34.8,28.29-4.82,3.44-9.5,6.61-13.99,9.51.16,4.19.63,8.14,1.31,11.87,7.46,40.51,43.04,65.18,59.79,75.17,3.51-2.67,7.54-5.92,11.86-9.79,6-5.36,12.58-11.92,19.16-19.8,28.68-.24,65.77-4.06,106.62-17.69,11.36-3.79,22.11-8.04,32.26-12.61,10.14,4.57,20.89,8.82,32.26,12.61,46.26,15.44,87.71,18.29,117.56,17.6,6.61,7.92,13.22,14.52,19.23,19.9,4.33,3.87,8.36,7.12,11.87,9.79,16.74-9.99,52.32-34.66,59.78-75.17.68-3.73,1.15-7.68,1.32-11.87-4.5-2.91-9.17-6.07-13.99-9.51-11.05-7.89-22.83-17.25-34.8-28.29-17.46-16.11-31.45-32.19-42.49-46.68,26.64-17.5,54.82-38.05,79.53-68.36h.01c.74-.91,1.47-1.82,2.2-2.75l5.55,14.66c-3.95,9.61-.4,20.39.98,24.08,1.85.35,9.01,1.49,16.3-2.75,8.28-4.81,10.58-12.96,10.98-14.53-4.75-6.01-9.69-10.33-14.08-12.52.02-.03.04-.05.04-.07,0-.51-9.28-12.25-13.33-17.34,1.12-1.54,2.23-3.09,3.32-4.67,3.75-5.38,7.37-11.03,10.87-16.99,1.37-2.34,2.69-4.67,3.96-6.99.16-.3.32-.6.49-.9,1.61,2.18,4.46,6.01,6.65,9.01-1.56,2.43-2.21,6-3.24,11.56-1.29,6.95-1.93,10.42-.16,12.59,3.7,4.55,15.17,2.4,22.43-2.9,5.86-4.28,12.08-12.87,9.37-18.41-1.85-3.79-7.2-4.75-13.08-5.81-3.13-.56-5.84-1.05-8.23-.91l-9.83-12.61c1-1.97,1.95-3.94,2.88-5.89,8.76-18.52,14.53-36.14,18.4-51.64,4.59-3.44,7.41-7.57,7.91-12.21,1.74-16.15-25.31-32.29-60.41-36.06-35.11-3.76-64.97,6.27-66.7,22.42-.67,6.28,3.01,12.55,9.82,18.1,1.09,6.89,1.96,15.36,1.96,25.03,0,2.62-.06,5.32-.2,8.11-17.31.29-34.63.58-51.94.87-1.68-2.81-3.46-5.56-5.33-8.23h0c-4.44-6.36-9.4-12.32-14.82-17.81-3.33-3.38-6.84-6.58-10.5-9.6l87.4-87.39c4.24-4.25,4.24-11.13,0-15.38l-5.18-5.18.55-.55c3.87-3.86,3.87-10.13,0-14l-3.01-3.01c-3.34-3.34-8.48-3.79-12.3-1.36-2.32-.9-5.43-1.55-9.04-.94-7.25,1.22-10.93,6.63-11.52,7.53,2.47,2.21,4.93,4.42,7.39,6.63l-89.54,92.58c-2.84-1.16-5.72-2.23-8.64-3.2-1.02-.34-2.05-.67-3.08-.98-1.24-5.92-2.23-13.07-2.34-21.19-.14-11.49,1.54-21.17,3.34-28.31h11.13c2.55,0,4.85-1.04,6.51-2.7,1.67-1.67,2.71-3.97,2.71-6.51,0-4.9-3.84-8.9-8.68-9.18,3.11-.83,5.95-2.36,8.13-4.55,2.79-2.79,4.52-6.65,4.52-10.92s-1.73-8.12-4.52-10.92c-2.79-2.79-6.65-4.52-10.92-4.52h-20.62c2.76-2.85,5.66-5.37,8.31-7.78,4.98-4.51,9.41-9.55,14.29-14.15,2.72-2.57,5.6-5,8.78-6.98,5.63-3.51,11.96-5.96,18.38-7.57,1.46-.37,2.94-.69,4.43-.96,21.03-3.91,42.68-.19,64.05-1.14,40.08-1.76,79.11-20.83,105.14-51.35-1.76,2.06-6.47,3.49-8.92,4.6-3.13,1.43-6.33,2.7-9.58,3.82-6.5,2.23-13.19,3.87-19.94,5.08-13.86,2.46-27.98,3.09-42.03,3.31-28.38.43-57.36-1.13-85.12,5.94-20.71,5.28-42.07,16.17-55.01,33.9,1.81-4.45,4.14-9.47,5.54-12.27,3.19-6.39,7.43-12.27,12.8-16.92,21-18.19,48.54-21.09,75.26-20.91,17.65.13,35.33,1.39,52.98.27,30.88-1.98,61.18-12.47,86.67-30.02,7.74-5.33,15.26-11.4,24.26-14.1,9.01-2.69,20.17-1.01,25.46,6.77,4.66,6.84,1.14,18.08-6.19,20.35,16.73-2.75,33.48-15.35,32.36-32.04-.81-12.22-11.33-22.18-23.07-25.69-11.74-3.51-24.4-1.74-36.3,1.19-38.2,9.41-73.29,30.45-112.28,35.66-28.25,3.78-57.43-.94-85.15,5.69-36.77,8.79-67.7,38.68-77.74,75.13,1.91-24.5,10.72-49.52,29.3-65.61,32-27.73,79.91-20.91,121.8-27.13,53.47-7.93,100.3-38.79,145.69-68.14,16.46-10.65,38.67-21.1,54.18-9.11,13.93,10.78,8.86,37.16-8.08,42.01,16.53-.15,33.3-7.51,42.93-20.94,9.63-13.43,10.9-32.95,1.38-46.45-13.15-18.68-40.03-20.54-62.66-17.42-82.02,11.31-153.84,62.74-235.31,77.44-26.03,4.7-54.29,6.19-75.16,22.43-31.77,24.72-32.68,71.55-30.73,111.76-12.24-22.53-18.06-49.64-10.48-74.13,11.68-37.71,50.83-59.51,88.29-71.96,38.62-12.85,78.94-19.88,117.91-31.6,38.98-11.73,77.56-28.83,105.92-58.03,16.09-16.57,28.35-36.48,43.78-53.67,15.42-17.19,35.44-32.15,58.47-33.92,23.03-1.77,48.3,14.05,50.21,37.07,1.33,16.19-9.41,32.09-24.18,38.86-14.77,6.76-32.59,5.09-47.04-2.34,10.77,20.91,32.29,38.17,55.74,36.36,23.9-1.85,42.74-23.03,49.54-46.02,8.92-30.21-.36-65.93-25.15-85.36ZM156,655.8c.18,1.79.4,3.57.64,5.33-7.44-9.45-16.24-22.85-23.07-40.12,8.13-2.02,16.26-4.05,24.39-6.07-.79,3.95-1.42,7.96-1.86,12.03-.54,4.89-.81,9.86-.81,14.89,0,4.71.24,9.36.71,13.94ZM128.2,604.95c-.14-.5-.27-1-.41-1.51-1.71-6.48-2.94-12.77-3.78-18.78,14.77-.38,29.54-.74,44.3-1.11-.2.43-.42.85-.61,1.28-2,4.35-3.75,8.83-5.29,13.41-11.4,2.23-22.8,4.47-34.21,6.71ZM202.25,834.21c-14.12,2.77-27.11,4.13-38.46,4.69,3.58-5.9,7.64-13.07,12.03-21.66,6.03-11.8,13.11-27.16,19.88-45.86,15.85,14.36,36.37,30.35,61.75,44.85-28.69,12.36-46.97,16.36-55.2,17.98ZM427.96,661.21c.5-3.56.87-7.16,1.09-10.79.17-2.83.26-5.68.26-8.56,0-9.2-.9-18.21-2.64-26.91,8.14,2.02,16.28,4.05,24.41,6.07h.01c-6.84,17.31-15.67,30.73-23.13,40.19ZM460.64,584.67c-.83,6.01-2.06,12.3-3.78,18.78-.13.51-.27,1.01-.4,1.51-11.42-2.24-22.83-4.48-34.24-6.71-.75-2.27-1.58-4.51-2.45-6.73-1.06-2.7-2.21-5.36-3.45-7.96,14.77.37,29.55.74,44.32,1.11ZM350.76,517.91s.01.01.01.01c-.11,0-.23-.01-.34-.02.11,0,.22.01.33.01ZM386.23,763.63c7.56,22.25,15.76,40.22,22.61,53.62,4.46,8.74,8.58,16.01,12.22,21.97-13.68-.1-30.65-1.27-49.68-5.01-8.23-1.62-26.51-5.62-55.2-17.98,30.07-17.18,53.32-36.45,70.05-52.6ZM342.68,769.31c-21.11,14.18-40.16,24.94-55.86,33.01-18.55-9.53-41.76-22.8-67.51-41.04,6.87,3.06,12.95,5.23,17.26,5.78,5.08,2.27,10.32,4.23,15.7,5.87,11.24,3.43,23.09,5.45,35.35,5.86,1.56.05,3.12.08,4.69.08,12.77,0,25.13-1.75,36.86-5.02h.01c4.6-1.28,9.11-2.8,13.5-4.54Z" style="fill: #facc15;"/>
  </g>
</svg>